<svg width="601" height="74" xmlns="http://www.w3.org/2000/svg" xmlns:xlink="http://www.w3.org/1999/xlink" xml:space="preserve" overflow="hidden"><defs><clipPath id="clip0"><rect x="0" y="0" width="300" height="74"/></clipPath><clipPath id="clip1"><rect x="0" y="0" width="300" height="74"/></clipPath></defs><g clip-path="url(#clip0)"><g clip-path="url(#clip1)"><path d="M47.6823 4.77419 47.6823 30.1371 23.9903 30.1371 23.9903 4.77419 5.37097 4.77419 5.37097 72.4484 23.9903 72.4484 23.9903 45.3548 47.6823 45.3548 47.6823 72.4484 66.3016 72.4484 66.3016 4.77419ZM112.79 74.1194C97.5726 74.0597 82.3548 63.9742 82.3548 43.6839L82.3548 4.77419 100.974 4.77419 100.974 45.3548C100.974 53.829 107.777 57.171 112.85 57.171 117.923 57.171 124.726 53.7694 124.726 45.3548L124.726 4.77419 143.226 4.77419 143.226 43.6839C143.226 63.9742 128.008 74.179 112.79 74.1194ZM190.61 74.1194C171.155 74.1194 155.102 58.9016 155.102 38.6113 155.102 18.321 171.155 3.10323 190.61 3.10323 204.156 3.10323 212.571 9.84678 212.571 9.84678L202.008 22.9758C202.008 22.9758 198.189 19.5742 190.61 19.5742 180.465 19.5742 173.303 28.4661 173.303 38.6113 173.303 48.7565 180.465 57.2306 190.61 57.2306 199.084 57.2306 203.321 53.829 203.321 53.829L203.321 45.3548 188.939 45.3548 188.939 30.5548 219.374 30.5548 219.374 62.3032C219.374 62.3032 210.065 74.1194 190.61 74.1194ZM265.923 19.9919C255.777 19.9919 248.616 28.4661 248.616 38.6113 248.616 48.7565 255.777 57.2306 265.923 57.2306 276.068 57.2306 283.229 48.7565 283.229 38.6113 283.229 28.4661 276.068 19.9919 265.923 19.9919ZM265.923 74.1194C246.468 74.1194 230.415 58.9016 230.415 38.6113 230.415 18.321 246.468 3.10323 265.923 3.10323 285.377 3.10323 301.431 18.321 301.431 38.6113 301.431 58.9016 285.377 74.1194 265.923 74.1194ZM444.358 19.9919C434.213 19.9919 427.052 28.4661 427.052 38.6113 427.052 48.7565 434.213 57.2306 444.358 57.2306 454.503 57.2306 461.665 48.7565 461.665 38.6113 461.724 28.4661 454.503 19.9919 444.358 19.9919ZM444.358 74.1194C424.903 74.1194 408.85 58.9016 408.85 38.6113 408.85 18.321 424.903 3.10323 444.358 3.10323 463.813 3.10323 479.866 18.321 479.866 38.6113 479.866 58.9016 463.813 74.1194 444.358 74.1194ZM519.671 52.9936C519.671 55.5 517.165 57.6484 512.927 57.6484 503.618 57.6484 497.71 51.3226 497.71 51.3226L487.565 64.8694C487.565 64.8694 496.039 74.179 512.927 74.179 526.474 74.179 538.29 65.7048 538.29 53.0532 538.29 32.7629 506.124 31.0323 506.124 24.2887 506.124 21.7823 509.526 19.6339 514.598 19.6339 521.342 19.6339 525.161 23.0355 525.161 23.0355L534.889 9.90645C534.889 9.90645 526.415 3.1629 512.927 3.1629 500.216 3.1629 489.236 12.4726 489.236 24.2887 489.176 44.5194 519.671 45.3548 519.671 52.9936ZM390.231 35.2097C393.215 31.3903 394.468 27.6306 394.468 23.3935 394.468 13.0694 386.113 4.77419 375.848 4.77419L343.742 4.77419 343.742 72.4484 378.832 72.4484C390.29 72.4484 399.54 63.1387 399.54 51.7403 399.54 44.6387 396.139 38.6113 390.231 35.2097ZM361.048 19.5742 371.611 19.5742C374.894 19.5742 377.519 22.2 377.519 25.4823 377.519 28.7645 374.894 31.3903 371.611 31.3903L361.048 31.3903 361.048 19.5742ZM375.013 57.2306 361.048 57.2306 361.048 44.5194 375.013 44.5194C378.534 44.5194 381.339 47.3839 381.339 50.8452 381.339 54.3661 378.534 57.2306 375.013 57.2306ZM578.871 52.9936C578.871 55.5 576.365 57.6484 572.127 57.6484 562.818 57.6484 556.91 51.3226 556.91 51.3226L546.765 64.8694C546.765 64.8694 555.239 74.179 572.127 74.179 585.674 74.179 597.49 65.7048 597.49 53.0532 597.49 32.7629 565.324 31.0323 565.324 24.2887 565.324 21.7823 568.726 19.6339 573.798 19.6339 580.542 19.6339 584.361 23.0355 584.361 23.0355L594.089 9.90645C594.089 9.90645 585.615 3.1629 572.127 3.1629 559.416 3.1629 548.435 12.4726 548.435 24.2887 548.376 44.5194 578.871 45.3548 578.871 52.9936Z" fill="#FFFFFF" fill-rule="nonzero" fill-opacity="1" transform="scale(1.00207 1)"/></g></g></svg>